<svg width="14" height="16" viewBox="0 0 14 16" fill="none" xmlns="http://www.w3.org/2000/svg">
<path d="M12.9999 4.99988L8.49989 1.05488C8.08737 0.685916 7.55334 0.481934 6.99989 0.481934C6.44644 0.481934 5.91241 0.685916 5.49989 1.05488L0.999888 4.99988C0.761664 5.21294 0.571563 5.4743 0.442242 5.76657C0.312921 6.05883 0.247347 6.37529 0.249888 6.69488V13.2499C0.249888 13.8466 0.486941 14.4189 0.908898 14.8409C1.33085 15.2628 1.90315 15.4999 2.49989 15.4999H11.4999C12.0966 15.4999 12.6689 15.2628 13.0909 14.8409C13.5128 14.4189 13.7499 13.8466 13.7499 13.2499V6.68738C13.7514 6.36905 13.6853 6.05404 13.556 5.76314C13.4267 5.47225 13.2372 5.2121 12.9999 4.99988ZM8.49989 13.9999H5.49989V10.2499C5.49989 10.051 5.57891 9.86021 5.71956 9.71955C5.86021 9.5789 6.05098 9.49988 6.24989 9.49988H7.74989C7.9488 9.49988 8.13957 9.5789 8.28022 9.71955C8.42087 9.86021 8.49989 10.051 8.49989 10.2499V13.9999ZM12.2499 13.2499C12.2499 13.4488 12.1709 13.6396 12.0302 13.7802C11.8896 13.9209 11.6988 13.9999 11.4999 13.9999H9.99989V10.2499C9.99989 9.65314 9.76284 9.08085 9.34088 8.65889C8.91892 8.23693 8.34662 7.99988 7.74989 7.99988H6.24989C5.65315 7.99988 5.08085 8.23693 4.6589 8.65889C4.23694 9.08085 3.99989 9.65314 3.99989 10.2499V13.9999H2.49989C2.30098 13.9999 2.11021 13.9209 1.96956 13.7802C1.82891 13.6396 1.74989 13.4488 1.74989 13.2499V6.68738C1.75002 6.58089 1.77283 6.47566 1.8168 6.37867C1.86077 6.28168 1.92489 6.19517 2.00489 6.12488L6.50489 2.18738C6.64175 2.06714 6.81771 2.00083 6.99989 2.00083C7.18207 2.00083 7.35802 2.06714 7.49489 2.18738L11.9949 6.12488C12.0749 6.19517 12.139 6.28168 12.183 6.37867C12.2269 6.47566 12.2498 6.58089 12.2499 6.68738V13.2499Z" fill="white"/>
</svg>
