<svg width="18" height="20" viewBox="0 0 18 20" fill="none" xmlns="http://www.w3.org/2000/svg">
<path d="M4.03589 15.5001L15.3244 4.21158C15.3244 4.21157 15.3244 4.21155 15.3244 4.21153C15.4181 4.11777 15.4708 3.99064 15.4708 3.85808C15.4708 3.72553 15.4181 3.5984 15.3244 3.50464L4.03589 15.5001ZM4.03589 15.5001H0.5V11.9642L11.7885 0.67569C11.7885 0.675672 11.7885 0.675655 11.7886 0.675637C11.8823 0.581935 12.0094 0.529297 12.142 0.529297C12.2746 0.529297 12.4017 0.581934 12.4954 0.675637C12.4955 0.675655 12.4955 0.675672 12.4955 0.67569L15.3244 3.50458L4.03589 15.5001ZM3.414 14.5001H3.62111L3.76755 14.3536L13.9096 4.21164L14.2631 3.85808L13.9096 3.50453L12.4956 2.09053L12.142 1.73698L11.7884 2.09053L1.64645 12.2325L1.5 12.379V12.5861V14.0001V14.5001H2H3.414ZM0.5 18.5001H17.5V19.5001H0.5V18.5001Z" stroke="#445A74" stroke-opacity="0.7"/>
</svg>
